<svg width="349" height="266" viewBox="0 0 349 266" fill="none" xmlns="http://www.w3.org/2000/svg">
<path d="M48.428 0H18.2842C-2.30728 0 -19 16.6927 -19 37.2842V265.716C-19 286.307 -2.30728 303 18.2842 303H48.428C69.0195 303 85.7122 286.307 85.7122 265.716V37.2842C85.7122 16.6927 69.0195 0 48.428 0Z" fill="#05285E" fill-opacity="0.15"/>
<path d="M179.954 76.2054H149.81C129.219 76.2054 112.526 92.8982 112.526 113.49V265.71C112.526 286.301 129.219 302.994 149.81 302.994H179.954C200.545 302.994 217.238 286.301 217.238 265.71V113.49C217.238 92.8982 200.545 76.2054 179.954 76.2054Z" fill="#05285E" fill-opacity="0.15"/>
<path d="M311.497 0H281.354C260.762 0 244.069 16.6927 244.069 37.2842V265.716C244.069 286.307 260.762 303 281.354 303H311.497C332.089 303 348.782 286.307 348.782 265.716V37.2842C348.782 16.6927 332.089 0 311.497 0Z" fill="#05285E" fill-opacity="0.15"/>
</svg>
