<svg width="20" height="21" viewBox="0 0 20 21" fill="none" xmlns="http://www.w3.org/2000/svg">
<path d="M9.85838 9.55834C7.87505 9.49167 6.30005 7.86667 6.30005 5.86667C6.30005 3.82501 7.95005 2.16667 10 2.16667C12.0417 2.16667 13.7 3.82501 13.7 5.86667C13.6917 7.86667 12.1167 9.49167 10.1334 9.55834C10.05 9.55001 9.95005 9.55001 9.85838 9.55834Z" stroke="#9E9E9E" stroke-width="1.5" stroke-linecap="round" stroke-linejoin="round"/>
<path d="M5.96663 17.525C8.2583 19.0583 12.0166 19.0583 14.3083 17.525C16.325 16.175 16.325 13.975 14.3083 12.6333C12.025 11.1083 8.26663 11.1083 5.96663 12.6333C3.94997 13.9833 3.94997 16.1833 5.96663 17.525Z" stroke="#9E9E9E" stroke-width="1.5" stroke-linecap="round" stroke-linejoin="round"/>
</svg>
