<svg width="37" height="30" viewBox="0 0 37 30" fill="none" xmlns="http://www.w3.org/2000/svg">
<path d="M6.67604 0H3.69151C1.65274 0 0 1.65274 0 3.6915V26.3085C0 28.3473 1.65274 30 3.69151 30H6.67604C8.7148 30 10.3675 28.3473 10.3675 26.3085V3.6915C10.3675 1.65274 8.7148 0 6.67604 0Z" fill="#05285E"/>
<path d="M19.6985 7.54517H16.714C14.6752 7.54517 13.0225 9.19791 13.0225 11.2367V26.308C13.0225 28.3467 14.6752 29.9995 16.714 29.9995H19.6985C21.7373 29.9995 23.39 28.3467 23.39 26.308V11.2367C23.39 9.19791 21.7373 7.54517 19.6985 7.54517Z" fill="#05285E"/>
<path d="M32.7227 0H29.7381C27.6994 0 26.0466 1.65274 26.0466 3.6915V26.3085C26.0466 28.3473 27.6994 30 29.7381 30H32.7227C34.7614 30 36.4142 28.3473 36.4142 26.3085V3.6915C36.4142 1.65274 34.7614 0 32.7227 0Z" fill="#05285E"/>
</svg>
