<svg width="190" height="34" viewBox="0 0 190 34" fill="none" xmlns="http://www.w3.org/2000/svg">
<path d="M7.53394 0H4.16588C1.86513 0 0 1.86513 0 4.16588V29.6893C0 31.99 1.86513 33.8551 4.16588 33.8551H7.53394C9.83469 33.8551 11.6998 31.99 11.6998 29.6893V4.16588C11.6998 1.86513 9.83469 0 7.53394 0Z" fill="#05285E"/>
<path d="M22.2297 8.51488H18.8616C16.5608 8.51488 14.6957 10.38 14.6957 12.6808V29.6888C14.6957 31.9895 16.5608 33.8547 18.8616 33.8547H22.2297C24.5304 33.8547 26.3955 31.9895 26.3955 29.6888V12.6808C26.3955 10.38 24.5304 8.51488 22.2297 8.51488Z" fill="#05285E"/>
<path d="M36.9274 0H33.5593C31.2586 0 29.3935 1.86513 29.3935 4.16588V29.6893C29.3935 31.99 31.2586 33.8551 33.5593 33.8551H36.9274C39.2281 33.8551 41.0933 31.99 41.0933 29.6893V4.16588C41.0933 1.86513 39.2281 0 36.9274 0Z" fill="#05285E"/>
<path d="M69.4168 9.38273V24.2625H67.3293C66.3842 24.2625 65.6181 23.4964 65.6181 22.5513V16.3387L61.4318 23.2086C61.3638 23.3219 61.2392 23.3921 61.1077 23.3921C60.974 23.3921 60.8516 23.3219 60.7836 23.2086L56.5973 16.3387V22.5513C56.5973 23.4964 55.8312 24.2625 54.8861 24.2625H52.7986V9.38273H56.5973L60.8969 16.4203C60.9944 16.579 61.2233 16.579 61.3208 16.4203L65.6204 9.38273H69.4191H69.4168Z" fill="#05285E"/>
<path d="M85.8014 9.38273L80.2212 19.2807V24.2648H76.4225V19.2807L70.8423 9.38273H74.1265C74.7634 9.38273 75.3481 9.73631 75.6428 10.3007L78.3218 15.4321L80.9986 10.3029C81.2932 9.73857 81.878 9.38273 82.5149 9.38273H85.7991H85.8014Z" fill="#05285E"/>
<path d="M112.989 9.38273L107.408 19.2807V24.2648H103.61V19.2807L98.0294 9.38273H101.314C101.951 9.38273 102.535 9.73631 102.83 10.3007L105.509 15.4321L108.186 10.3029C108.48 9.73857 109.065 9.38273 109.702 9.38273H112.986H112.989Z" fill="#05285E"/>
<path d="M123.058 23.1595L122.219 20.9405H115.825L114.98 23.164C114.728 23.8281 114.092 24.2655 113.382 24.2655H110.841L116.492 9.38577H121.335L126.999 24.2655H124.66C123.949 24.2655 123.312 23.8258 123.06 23.1595H123.058ZM116.977 18.1323H121.004L118.924 13.2865L116.977 18.1323Z" fill="#05285E"/>
<path d="M175.606 23.1587L174.765 20.9398H168.371L167.525 23.161C167.272 23.825 166.637 24.2625 165.925 24.2625H163.385L169.035 9.38273H173.879L179.543 24.2625H177.204C176.492 24.2625 175.855 23.8228 175.603 23.1587H175.606ZM169.525 18.1315H173.552L171.471 13.2857L169.525 18.1315Z" fill="#05285E"/>
<path d="M136.655 23.4964L134.024 19.5277H132.224V22.5513C132.224 23.4964 131.458 24.2625 130.513 24.2625H128.4V9.38273H135.071C136.653 9.38273 137.999 9.93803 139.107 11.0441C140.216 12.1524 140.769 13.4987 140.769 15.0808C140.769 16.0939 140.517 17.0527 139.926 17.8935C139.404 18.6347 138.765 19.3691 137.457 19.2693L141.245 24.2602H138.078C137.505 24.2602 136.97 23.9724 136.653 23.4941L136.655 23.4964ZM132.224 12.3791V16.6538H135.073C135.594 16.6538 136.043 16.4475 136.415 16.0373C136.786 15.6247 136.972 15.1193 136.972 14.5187C136.972 13.9181 136.786 13.4104 136.415 13.0001C136.043 12.5876 135.597 12.3836 135.073 12.3836H132.224V12.3791Z" fill="#05285E"/>
<path d="M144.736 9.38273H146.826V22.5535C146.826 23.4987 146.06 24.2625 145.117 24.2625H143.027V11.0917C143.027 10.1465 143.793 9.38273 144.736 9.38273Z" fill="#05285E"/>
<path d="M190.002 9.38398V13.0399H185.728V22.5502C185.728 23.4977 184.959 24.2637 184.014 24.2637H181.929V13.0399H177.654V11.0907C177.654 10.1478 178.418 9.38171 179.363 9.38171H190.002V9.38398Z" fill="#05285E"/>
<path d="M148.66 9.4367H151.045C151.99 9.4367 152.756 10.2028 152.756 11.1479V15.4317L157.842 9.4367H162.697L157.103 15.7694L162.887 24.2122H158.896C158.329 24.2122 157.801 23.9311 157.482 23.4642L154.254 18.7249L152.756 20.3704V22.501C152.756 23.4461 151.99 24.2099 151.047 24.2099H148.663V9.43443L148.66 9.4367Z" fill="#05285E"/>
<path d="M85.7291 22.1259L86.5224 21.1763C87.1094 20.4736 88.1203 20.2742 88.909 20.7388C89.861 21.2964 90.8651 21.625 92.0165 21.625C93.3582 21.625 94.1334 21.1015 94.1334 20.2424V20.2016C94.1334 19.3834 93.6302 18.9437 91.1778 18.3363C88.2019 17.6019 86.3139 16.7429 86.3139 13.8508V13.8078C86.3139 11.1469 88.4308 9.38577 91.4498 9.38577C93.6098 9.38577 95.3913 10.0567 96.8985 11.2511L96.239 12.2076C95.7041 12.9828 94.6796 13.2751 93.8342 12.8604C93.016 12.4592 92.2159 12.2348 91.4068 12.2348C90.1488 12.2348 89.521 12.7788 89.521 13.5131V13.5562C89.521 14.5421 90.1488 14.8141 92.6851 15.485C95.661 16.2806 97.3383 17.33 97.3383 19.8866V19.9274C97.3383 22.8399 95.1171 24.4763 91.9507 24.4763C89.7069 24.4763 87.4857 23.7216 85.7246 22.1282L85.7291 22.1259Z" fill="#05285E"/>
</svg>
