<svg width="24" height="25" viewBox="0 0 24 25" fill="none" xmlns="http://www.w3.org/2000/svg">
<path d="M6.01997 9.40991V12.2999C6.01997 12.9099 5.75997 13.8399 5.44997 14.3599L4.29997 16.2699C3.58997 17.4499 4.07997 18.7599 5.37997 19.1999C9.68997 20.6399 14.34 20.6399 18.65 19.1999C19.86 18.7999 20.39 17.3699 19.73 16.2699L18.58 14.3599C18.28 13.8399 18.02 12.9099 18.02 12.2999V9.40991C18.02 6.10991 15.32 3.40991 12.02 3.40991C8.70997 3.40991 6.01997 6.09991 6.01997 9.40991Z" stroke="#9E9E9E" stroke-width="1.5" stroke-linecap="round"/>
<path d="M12.91 3.49994C11.95 3.37994 11.03 3.44994 10.17 3.69994C10.46 2.95994 11.18 2.43994 12.02 2.43994C12.86 2.43994 13.58 2.95994 13.87 3.69994C13.56 3.60994 13.24 3.53994 12.91 3.49994Z" stroke="#9E9E9E" stroke-width="1.5" stroke-linecap="round" stroke-linejoin="round"/>
<path d="M15.02 19.5601C15.02 21.2101 13.67 22.5601 12.02 22.5601C11.2 22.5601 10.44 22.2201 9.90002 21.6801C9.36002 21.1401 9.02002 20.3801 9.02002 19.5601" stroke="#9E9E9E" stroke-width="1.5"/>
</svg>
