<svg width="16" height="16" viewBox="0 0 16 16" fill="none" xmlns="http://www.w3.org/2000/svg">
<path d="M10 14.6667C13.3333 14.6667 14.6667 13.3333 14.6667 10V6C14.6667 2.66666 13.3333 1.33333 10 1.33333H6C2.66667 1.33333 1.33333 2.66666 1.33333 6V10C1.33333 13.3333 2.66667 14.6667 6 14.6667H10Z" stroke="#05285E" stroke-width="1.5" stroke-linecap="round" stroke-linejoin="round"/>
<path d="M11.6667 11V5.00001C11.6667 4.26667 11.0667 3.66667 10.3333 3.66667C9.6 3.66667 9 4.26667 9 5.00001V11C9 11.7333 9.59333 12.3333 10.3333 12.3333C11.0667 12.3333 11.6667 11.7333 11.6667 11Z" stroke="#05285E" stroke-linecap="round" stroke-linejoin="round"/>
<path d="M7 11V8.66666C7 7.93333 6.4 7.33333 5.66667 7.33333C4.93333 7.33333 4.33333 7.93333 4.33333 8.66666V11C4.33333 11.7333 4.92667 12.3333 5.66667 12.3333C6.4 12.3333 7 11.7333 7 11Z" stroke="#05285E" stroke-linecap="round" stroke-linejoin="round"/>
</svg>
