<svg width="33" height="36" viewBox="0 0 33 36" fill="none" xmlns="http://www.w3.org/2000/svg">
<path d="M28.624 29.4556L21.0408 33.8301C20.6599 33.1837 20.4521 32.4335 20.4521 31.6255C20.4521 29.2017 22.4143 27.251 24.8266 27.251C26.4541 27.251 27.8738 28.1398 28.624 29.4556Z" fill="#EC7E30"/>
<path d="M32.6066 12.3386V23.142C32.6066 25.1619 31.7294 27.0664 30.2289 28.3706C29.1209 26.5354 27.1125 25.3235 24.8272 25.3235C21.3415 25.3235 18.5136 28.1513 18.5136 31.6371C18.5136 32.7797 18.8253 33.8647 19.3562 34.7881C17.2902 35.8038 14.8432 35.723 12.8233 34.5688L3.47419 29.167C1.32735 27.9205 0 25.6351 0 23.1536V12.3501C0 9.86855 1.32735 7.57166 3.47419 6.33664L12.8233 0.934915C14.9702 -0.311638 17.6249 -0.311638 19.7717 0.934915L29.1209 6.33664C31.2793 7.57166 32.6066 9.85701 32.6066 12.3386Z" fill="#E55D2A"/>
<path d="M11.8884 6.44075C15.1779 6.4292 18.4674 6.42921 21.7569 6.41766C21.7569 6.41766 21.7569 18.5716 21.7569 19.0563C21.7569 19.5411 23.0035 29.4558 10.8149 29.0518V23.2808C11.2882 23.3385 12.05 23.35 12.881 23.0384C14.8547 22.3112 15.6626 20.8454 15.7088 20.0605C15.755 19.2756 15.7896 14.3818 15.8242 11.5308C14.4853 11.5655 13.158 11.5886 11.8191 11.6232C11.8422 9.9034 11.8653 8.17207 11.8884 6.44075Z" fill="white"/>
<path d="M29.2011 31.6255C29.2011 34.0494 27.2389 36 24.8266 36C23.2107 36 21.8026 35.1228 21.0408 33.8185C20.6599 33.1722 20.4521 32.4219 20.4521 31.614C20.4521 29.1901 22.4143 27.2395 24.8266 27.2395C26.4541 27.2395 27.8738 28.1282 28.624 29.4441C28.9933 30.0904 29.2011 30.8407 29.2011 31.6255Z" fill="#FCF8F5"/>
<path d="M29.2011 31.6255C29.2011 34.0494 27.2389 36 24.8266 36C23.2107 36 21.8026 35.1228 21.0408 33.8185C20.6599 33.1722 20.4521 32.4219 20.4521 31.614C20.4521 29.1901 22.4143 27.2395 24.8266 27.2395C26.4541 27.2395 27.8738 28.1282 28.624 29.4441C28.9933 30.0904 29.2011 30.8407 29.2011 31.6255Z" fill="#E55D2A"/>
</svg>
