<svg width="16" height="16" viewBox="0 0 16 16" fill="none" xmlns="http://www.w3.org/2000/svg">
<path d="M3.33333 15.1667C1.95333 15.1667 0.833332 14.0467 0.833332 12.6667V1.33334C0.833332 1.06001 1.06 0.833344 1.33333 0.833344C1.60667 0.833344 1.83333 1.06001 1.83333 1.33334V12.6667C1.83333 13.4933 2.50667 14.1667 3.33333 14.1667H14.6667C14.94 14.1667 15.1667 14.3933 15.1667 14.6667C15.1667 14.94 14.94 15.1667 14.6667 15.1667H3.33333Z" fill="#05285E"/>
<path d="M3.00655 11.7132C2.79988 11.5332 2.77321 11.2199 2.95321 11.0065L6.01321 7.4332C6.34655 7.04654 6.82655 6.8132 7.33321 6.7932C7.83988 6.77987 8.33988 6.96654 8.69988 7.32654L9.33321 7.95987C9.49988 8.12654 9.71321 8.20654 9.95321 8.20654C10.1865 8.19987 10.3999 8.0932 10.5532 7.9132L13.6132 4.33987C13.7932 4.1332 14.1065 4.10654 14.3199 4.28654C14.5265 4.46654 14.5532 4.77987 14.3732 4.9932L11.3132 8.56654C10.9799 8.95321 10.4999 9.18654 9.99321 9.20654C9.47988 9.21987 8.98655 9.03321 8.62655 8.6732L7.99988 8.03987C7.83321 7.8732 7.61321 7.78654 7.37988 7.7932C7.14655 7.79987 6.93321 7.90654 6.77988 8.08654L3.71988 11.6599C3.61321 11.7732 3.47321 11.8332 3.33321 11.8332C3.21988 11.8332 3.09988 11.7932 3.00655 11.7132Z" fill="#05285E"/>
</svg>
