<svg width="16" height="16" viewBox="0 0 16 16" fill="none" xmlns="http://www.w3.org/2000/svg">
<path d="M11.3067 4.11337C12.64 5.04004 13.56 6.51337 13.7467 8.21337" stroke="#05285E" stroke-width="1.5" stroke-linecap="round" stroke-linejoin="round"/>
<path d="M2.32666 8.24664C2.49999 6.5533 3.40666 5.07997 4.72666 4.14664" stroke="#05285E" stroke-width="1.5" stroke-linecap="round" stroke-linejoin="round"/>
<path d="M5.46 13.96C6.23334 14.3533 7.11334 14.5733 8.04 14.5733C8.93334 14.5733 9.77334 14.3733 10.5267 14.0066" stroke="#05285E" stroke-width="1.5" stroke-linecap="round" stroke-linejoin="round"/>
<path fill-rule="evenodd" clip-rule="evenodd" d="M8.04002 5.13333C7.01645 5.13333 6.18669 4.30357 6.18669 3.28C6.18669 2.25643 7.01645 1.42667 8.04002 1.42667C9.06359 1.42667 9.89335 2.25643 9.89335 3.28C9.89335 4.30357 9.06359 5.13333 8.04002 5.13333Z" stroke="#05285E" stroke-width="1.5" stroke-linecap="round" stroke-linejoin="round"/>
<path fill-rule="evenodd" clip-rule="evenodd" d="M3.21999 13.28C2.19642 13.28 1.36666 12.4502 1.36666 11.4267C1.36666 10.4031 2.19642 9.57333 3.21999 9.57333C4.24356 9.57333 5.07332 10.4031 5.07332 11.4267C5.07332 12.4502 4.24356 13.28 3.21999 13.28Z" stroke="#05285E" stroke-width="1.5" stroke-linecap="round" stroke-linejoin="round"/>
<path fill-rule="evenodd" clip-rule="evenodd" d="M12.78 13.28C11.7564 13.28 10.9267 12.4502 10.9267 11.4267C10.9267 10.4031 11.7564 9.57333 12.78 9.57333C13.8036 9.57333 14.6333 10.4031 14.6333 11.4267C14.6333 12.4502 13.8036 13.28 12.78 13.28Z" stroke="#05285E" stroke-width="1.5" stroke-linecap="round" stroke-linejoin="round"/>
</svg>
